<svg xmlns="http://www.w3.org/2000/svg" viewBox="0 0 553.31 128.23"><defs><style>.cls-1{fill:#d74126;stroke:#d74126;stroke-miterlimit:10;}</style></defs><g id="Layer_2" data-name="Layer 2"><g id="Layer_1-2" data-name="Layer 1"><rect class="cls-1" x="124.32" y="0.5" width="11.68" height="1.31"/><rect class="cls-1" x="361.92" y="0.5" width="11.68" height="1.31"/><rect class="cls-1" x="541.14" y="0.5" width="11.68" height="1.31"/><rect class="cls-1" x="2.01" y="10.97" width="32.54" height="2.18"/><path class="cls-1" d="M57.24,9.84c-5.4,0-9.38.62-12.08,1.84a11.2,11.2,0,0,0-2.49,1.46H73.38C70.9,11,65.42,9.84,57.24,9.84Z"/><path class="cls-1" d="M110.08,11a42,42,0,0,0-9.84-1.18,37.2,37.2,0,0,0-12.6,2,12.11,12.11,0,0,0-2.43,1.26H115A16.69,16.69,0,0,0,110.08,11Z"/><path class="cls-1" d="M157.15,13c-2-1.84-5.05-2.71-9.38-2.71a21,21,0,0,0-11.28,2.84h20.79Z"/><rect class="cls-1" x="124.31" y="3.81" width="11.68" height="9.33"/><path class="cls-1" d="M184,9.84c-5.41,0-9.39.62-12.09,1.84a11.44,11.44,0,0,0-2.49,1.46h30.71C197.63,11,192.16,9.84,184,9.84Z"/><rect class="cls-1" x="208.1" y="10.97" width="11.68" height="2.18"/><path class="cls-1" d="M229.32,10.3a15.08,15.08,0,0,0-9.14,2.84h16.95C235.58,11.24,233,10.3,229.32,10.3Z"/><polygon class="cls-1" points="252.78 10.96 239.67 10.96 240.71 13.14 253.74 13.14 252.78 10.96"/><polygon class="cls-1" points="277.1 10.96 265.01 10.96 264.15 13.14 276.22 13.14 277.1 10.96"/><path class="cls-1" d="M313.11,9.89c-5.7,0-10.76,1.19-14.2,3.25h27.83C323.52,11.05,318.8,9.89,313.11,9.89Z"/><path class="cls-1" d="M351.46,10.3a19,19,0,0,0-10.68,2.84h32.81V3.81H361.91v8.94A22.66,22.66,0,0,0,351.46,10.3Z"/><polygon class="cls-1" points="437.08 10.96 425.15 10.96 424.15 13.14 436.08 13.14 437.08 10.96"/><polygon class="cls-1" points="389.3 10.96 376.35 10.96 377.41 13.14 390.35 13.14 389.3 10.96"/><polygon class="cls-1" points="413.83 10.96 400.88 10.96 399.89 13.14 414.81 13.14 413.83 10.96"/><path class="cls-1" d="M456.57,9.84c-5.41,0-9.38.62-12.09,1.84A11.44,11.44,0,0,0,442,13.14h30.72C470.22,11,464.75,9.84,456.57,9.84Z"/><rect class="cls-1" x="480.69" y="10.97" width="11.68" height="2.18"/><path class="cls-1" d="M501.91,10.3a15.08,15.08,0,0,0-9.14,2.84h17C508.17,11.24,505.61,10.3,501.91,10.3Z"/><path class="cls-1" d="M530.67,10.3A18.94,18.94,0,0,0,520,13.14h32.8V3.81H541.13v8.94A22.67,22.67,0,0,0,530.67,10.3Z"/><rect class="cls-1" x="124.32" y="14.2" width="11.68" height="1.31"/><rect class="cls-1" x="361.92" y="14.2" width="11.68" height="1.31"/><rect class="cls-1" x="541.13" y="14.2" width="11.68" height="1.31"/><rect class="cls-1" x="2.02" y="22.66" width="32.54" height="2.18"/><path class="cls-1" d="M57.25,21.54c-5.4,0-9.38.61-12.08,1.84a10.48,10.48,0,0,0-2.49,1.46H73.39C70.91,22.64,65.43,21.54,57.25,21.54Z"/><path class="cls-1" d="M110.09,22.71a42.62,42.62,0,0,0-9.85-1.17,37.1,37.1,0,0,0-12.59,2,11.62,11.62,0,0,0-2.43,1.26H115A16.82,16.82,0,0,0,110.09,22.71Z"/><path class="cls-1" d="M157.16,24.7c-2-1.83-5-2.7-9.39-2.7a20.89,20.89,0,0,0-11.28,2.84h20.8A1.79,1.79,0,0,1,157.16,24.7Z"/><rect class="cls-1" x="124.32" y="15.51" width="11.68" height="9.33"/><path class="cls-1" d="M184,21.54c-5.4,0-9.38.61-12.08,1.84a10.48,10.48,0,0,0-2.49,1.46h30.71C197.64,22.64,192.16,21.54,184,21.54Z"/><rect class="cls-1" x="208.11" y="22.66" width="11.68" height="2.18"/><path class="cls-1" d="M229.32,22a15,15,0,0,0-9.13,2.84h16.95C235.59,22.94,233,22,229.32,22Z"/><polygon class="cls-1" points="252.78 22.66 239.68 22.66 240.72 24.84 253.74 24.84 252.78 22.66"/><polygon class="cls-1" points="277.11 22.66 265.02 22.66 264.15 24.84 276.23 24.84 277.11 22.66"/><path class="cls-1" d="M313.12,21.59c-5.7,0-10.77,1.19-14.2,3.25h27.83C323.53,22.75,318.81,21.59,313.12,21.59Z"/><path class="cls-1" d="M351.47,22a19,19,0,0,0-10.68,2.84H373.6V15.51H361.92v8.94A22.54,22.54,0,0,0,351.47,22Z"/><polygon class="cls-1" points="437.09 22.66 425.16 22.66 424.16 24.84 436.09 24.84 437.09 22.66"/><polygon class="cls-1" points="389.31 22.66 376.36 22.66 377.42 24.84 390.35 24.84 389.31 22.66"/><polygon class="cls-1" points="413.84 22.66 400.88 22.66 399.9 24.84 414.82 24.84 413.84 22.66"/><path class="cls-1" d="M456.58,21.54c-5.41,0-9.39.61-12.09,1.84A10.69,10.69,0,0,0,442,24.84h30.72C470.23,22.64,464.76,21.54,456.58,21.54Z"/><rect class="cls-1" x="480.7" y="22.66" width="11.68" height="2.18"/><path class="cls-1" d="M501.92,22a15.08,15.08,0,0,0-9.14,2.84h17C508.18,22.94,505.61,22,501.92,22Z"/><path class="cls-1" d="M530.68,22A19,19,0,0,0,520,24.84h32.81V15.51H541.13v8.94A22.54,22.54,0,0,0,530.68,22Z"/><polygon class="cls-1" points="34.55 29.04 34.55 24.84 2.02 24.84 2.02 30.47 15.64 30.47 10.67 34.18 27.11 34.18 34.55 29.04"/><path class="cls-1" d="M39.66,30.26l12.8-.51c.81-1.17,2.45-1.68,5.56-1.68,3.51,0,6,1,6,2.29,0,.92-.76,1.13-5.4,1.23-6.94.15-12.9,1-16.52,2.34-.2.08-.37.16-.55.25h34.3V32.61c0-4.18-.56-6.07-2.39-7.7l-.08-.07H42.68C41.12,26.08,40.26,27.71,39.66,30.26Z"/><path class="cls-1" d="M80.31,34.18h13C93.85,30.9,96.3,29,100.24,29c3.11,0,5.26,1.27,6.28,3.72h13.41a12.06,12.06,0,0,0-1.07-3.57A10.75,10.75,0,0,0,115,24.84H85.22C82.29,26.83,80.6,30,80.31,34.18Z"/><path class="cls-1" d="M136.39,34.18a4.69,4.69,0,0,1,.47-1.11c1-1.89,3.11-2.91,5.87-2.91,2.29,0,4,.71,4.69,1.94a6.37,6.37,0,0,1,.66,2.08H160a24.92,24.92,0,0,0-.3-5,8.14,8.14,0,0,0-2.37-4.35h-20.8l-.5.27v-.27H124.32v9.34Z"/><path class="cls-1" d="M166.39,30.26l12.8-.51c.82-1.17,2.45-1.68,5.56-1.68,3.52,0,6,1,6,2.29,0,.92-.77,1.13-5.41,1.23-6.93.15-12.9,1-16.52,2.34l-.54.25h34.3V32.61c0-4.18-.56-6.07-2.4-7.7a.27.27,0,0,0-.08-.07H169.41A9,9,0,0,0,166.39,30.26Z"/><path class="cls-1" d="M219.94,34.18c.39-2.63,1.62-3.82,3.93-3.82s3.32,1.09,3.53,3.82h11.76c-.06-3.66-.22-5.35-.71-6.88a7.34,7.34,0,0,0-1.31-2.46H220.19c-.14.09-.27.17-.4.27v-.27H208.11v9.34Z"/><polygon class="cls-1" points="257.86 34.18 253.74 24.84 240.72 24.84 245.16 34.18 257.86 34.18"/><polygon class="cls-1" points="272.46 34.18 276.23 24.84 264.15 24.84 260.43 34.18 272.46 34.18"/><path class="cls-1" d="M293.79,34.18H332a13.65,13.65,0,0,0-1.7-5.81,10.81,10.81,0,0,0-3.5-3.53H298.92c-.29.17-.58.34-.85.53C295.59,27.14,294,30.39,293.79,34.18Zm19.43-5.65c3.52,0,5.61,1.17,6.37,3.57H306.74C307.61,29.65,309.65,28.53,313.22,28.53Z"/><path class="cls-1" d="M335.51,34.18h13.11c.59-2.48,2.91-3.87,6.62-3.87s5.94,1.37,6.56,3.87h11.8V24.84H340.79A11.86,11.86,0,0,0,335.51,34.18Z"/><polygon class="cls-1" points="419.03 34.18 414.82 24.84 399.9 24.84 395.69 34.18 419.03 34.18"/><polygon class="cls-1" points="394.83 34.18 390.35 24.84 377.42 24.84 381.96 34.18 394.83 34.18"/><polygon class="cls-1" points="431.78 34.18 436.09 24.84 424.16 24.84 419.87 34.18 431.78 34.18"/><path class="cls-1" d="M439,30.26l12.8-.51c.82-1.17,2.45-1.68,5.56-1.68,3.52,0,6,1,6,2.29,0,.92-.77,1.13-5.41,1.23-6.93.15-12.9,1-16.52,2.34l-.54.25h34.3V32.61c0-4.18-.56-6.07-2.4-7.7l-.07-.07H442C440.45,26.08,439.59,27.71,439,30.26Z"/><path class="cls-1" d="M492.53,34.18c.4-2.63,1.62-3.82,3.93-3.82s3.32,1.09,3.53,3.82h11.76c-.05-3.66-.21-5.35-.71-6.88a7.34,7.34,0,0,0-1.31-2.46h-17c-.13.09-.27.17-.4.27v-.27H480.7v9.34Z"/><path class="cls-1" d="M514.72,34.18h13.11c.59-2.48,2.91-3.87,6.62-3.87s5.95,1.37,6.56,3.87h11.8V24.84H520A11.86,11.86,0,0,0,514.72,34.18Z"/><path class="cls-1" d="M227.44,34.55h11.72v-.37H227.4C227.41,34.3,227.43,34.41,227.44,34.55Z"/><path class="cls-1" d="M500,34.55h11.73c0-.14,0-.25,0-.37H500C500,34.3,500,34.41,500,34.55Z"/><rect class="cls-1" x="124.32" y="34.39" width="11.68" height="1.31"/><rect class="cls-1" x="361.92" y="34.39" width="11.68" height="1.31"/><rect class="cls-1" x="541.14" y="34.39" width="11.68" height="1.31"/><rect class="cls-1" x="2.02" y="42.86" width="32.54" height="2.18"/><path class="cls-1" d="M57.25,41.74c-5.4,0-9.38.61-12.08,1.83A10.84,10.84,0,0,0,42.68,45H73.39C70.91,42.84,65.43,41.74,57.25,41.74Z"/><path class="cls-1" d="M110.09,42.91a42.6,42.6,0,0,0-9.84-1.17,37,37,0,0,0-12.6,2A11.62,11.62,0,0,0,85.22,45H115A16.44,16.44,0,0,0,110.09,42.91Z"/><path class="cls-1" d="M157.16,44.9c-2-1.84-5-2.7-9.38-2.7A20.86,20.86,0,0,0,136.5,45h20.79A.86.86,0,0,0,157.16,44.9Z"/><rect class="cls-1" x="124.32" y="35.7" width="11.68" height="9.33"/><path class="cls-1" d="M184,41.74c-5.41,0-9.39.61-12.09,1.83A11.06,11.06,0,0,0,169.41,45h30.71C197.64,42.84,192.17,41.74,184,41.74Z"/><rect class="cls-1" x="208.11" y="42.86" width="11.68" height="2.18"/><path class="cls-1" d="M229.33,42.2A15.08,15.08,0,0,0,220.19,45h16.95C235.59,43.14,233,42.2,229.33,42.2Z"/><polygon class="cls-1" points="252.79 42.86 239.68 42.86 240.72 45.04 253.75 45.04 252.79 42.86"/><polygon class="cls-1" points="277.11 42.86 265.02 42.86 264.16 45.04 276.23 45.04 277.11 42.86"/><path class="cls-1" d="M313.12,41.79c-5.7,0-10.76,1.18-14.2,3.25h27.83C323.53,43,318.81,41.79,313.12,41.79Z"/><path class="cls-1" d="M351.47,42.2A18.92,18.92,0,0,0,340.79,45H373.6V35.7H361.92v8.94A22.65,22.65,0,0,0,351.47,42.2Z"/><polygon class="cls-1" points="437.09 42.86 425.16 42.86 424.16 45.04 436.09 45.04 437.09 42.86"/><polygon class="cls-1" points="389.31 42.86 376.36 42.86 377.42 45.04 390.36 45.04 389.31 42.86"/><polygon class="cls-1" points="413.84 42.86 400.89 42.86 399.9 45.04 414.82 45.04 413.84 42.86"/><path class="cls-1" d="M456.58,41.74c-5.41,0-9.38.61-12.09,1.83A11.06,11.06,0,0,0,442,45h30.72C470.23,42.84,464.76,41.74,456.58,41.74Z"/><rect class="cls-1" x="480.7" y="42.86" width="11.68" height="2.18"/><path class="cls-1" d="M501.92,42.2A15.08,15.08,0,0,0,492.78,45h17C508.18,43.14,505.62,42.2,501.92,42.2Z"/><path class="cls-1" d="M530.68,42.2A18.86,18.86,0,0,0,520,45h32.8V35.7H541.14v8.94A22.66,22.66,0,0,0,530.68,42.2Z"/><polygon class="cls-1" points="34.56 49.23 34.56 45.04 2.02 45.04 2.02 50.66 15.64 50.66 10.67 54.37 27.11 54.37 34.56 49.23"/><path class="cls-1" d="M39.66,50.46,52.46,50c.82-1.18,2.45-1.69,5.56-1.69,3.52,0,6,1,6,2.3,0,.92-.77,1.12-5.41,1.22-6.93.16-12.9,1-16.52,2.35-.19.07-.36.16-.55.24H75.87V52.8c0-4.18-.56-6.07-2.4-7.7L73.39,45H42.68A9,9,0,0,0,39.66,50.46Z"/><path class="cls-1" d="M80.31,54.37h13c.49-3.28,2.94-5.14,6.89-5.14,3.11,0,5.25,1.28,6.27,3.73h13.41a12,12,0,0,0-1.07-3.57A10.75,10.75,0,0,0,115,45H85.22C82.29,47,80.61,50.24,80.31,54.37Z"/><path class="cls-1" d="M136.39,54.37a5.61,5.61,0,0,1,.47-1.11c1-1.89,3.11-2.91,5.87-2.91,2.29,0,4,.72,4.69,1.94a6.45,6.45,0,0,1,.66,2.08H160a24,24,0,0,0-.3-5A7.94,7.94,0,0,0,157.29,45H136.5l-.5.27V45H124.32v9.33Z"/><path class="cls-1" d="M166.39,50.46l12.8-.51c.82-1.18,2.45-1.69,5.56-1.69,3.52,0,6,1,6,2.3,0,.92-.77,1.12-5.41,1.22-6.93.16-12.9,1-16.52,2.35-.19.07-.36.16-.54.24h34.3V52.8c0-4.18-.56-6.07-2.4-7.7l-.08-.06H169.41C167.86,46.28,167,47.91,166.39,50.46Z"/><path class="cls-1" d="M219.94,54.37c.4-2.62,1.62-3.81,3.93-3.81s3.32,1.09,3.53,3.81h11.76c-.06-3.65-.21-5.34-.71-6.87A7.15,7.15,0,0,0,237.14,45H220.19c-.13.09-.27.17-.4.27V45H208.11v9.33Z"/><polygon class="cls-1" points="257.86 54.37 253.75 45.04 240.72 45.04 245.17 54.37 257.86 54.37"/><polygon class="cls-1" points="272.47 54.37 276.23 45.04 264.16 45.04 260.44 54.37 272.47 54.37"/><path class="cls-1" d="M293.79,54.37H332a13.6,13.6,0,0,0-1.7-5.8,10.62,10.62,0,0,0-3.5-3.53H298.92c-.29.17-.58.34-.85.52C295.6,47.34,294,50.58,293.79,54.37Zm19.43-5.65c3.52,0,5.61,1.18,6.37,3.57H306.74C307.61,49.85,309.65,48.72,313.22,48.72Z"/><path class="cls-1" d="M335.51,54.37h13.11c.59-2.48,2.91-3.86,6.62-3.86s5.95,1.36,6.56,3.86h11.8V45H340.79A11.84,11.84,0,0,0,335.51,54.37Z"/><polygon class="cls-1" points="419.03 54.37 414.82 45.04 399.9 45.04 395.7 54.37 419.03 54.37"/><polygon class="cls-1" points="394.83 54.37 390.36 45.04 377.42 45.04 381.96 54.37 394.83 54.37"/><polygon class="cls-1" points="431.79 54.37 436.09 45.04 424.16 45.04 419.88 54.37 431.79 54.37"/><path class="cls-1" d="M439,50.46l12.8-.51c.81-1.18,2.44-1.69,5.55-1.69,3.52,0,6,1,6,2.3,0,.92-.76,1.12-5.4,1.22-6.94.16-12.91,1-16.53,2.35-.19.07-.36.16-.54.24h34.3V52.8c0-4.18-.56-6.07-2.39-7.7l-.08-.06H442C440.45,46.28,439.59,47.91,439,50.46Z"/><path class="cls-1" d="M492.54,54.37c.39-2.62,1.62-3.81,3.92-3.81s3.32,1.09,3.54,3.81h11.75c-.05-3.65-.21-5.34-.7-6.87A7.32,7.32,0,0,0,509.74,45h-17l-.4.27V45H480.7v9.33Z"/><path class="cls-1" d="M514.72,54.37h13.11c.59-2.48,2.92-3.86,6.63-3.86s5.94,1.36,6.55,3.86h11.8V45H520A11.85,11.85,0,0,0,514.72,54.37Z"/><polygon class="cls-1" points="18.09 60.6 27.11 54.37 10.67 54.37 0.54 61.93 0.54 63.7 34.2 63.7 34.2 60.6 18.09 60.6"/><path class="cls-1" d="M75.87,54.37H41.56a6.15,6.15,0,0,0-4,5.88,7.27,7.27,0,0,0,.84,3.45H75.89c0-.29,0-.6,0-1ZM64.14,57.49c0,3.17-1.89,4.19-8,4.19-3.16,0-4.69-.72-4.69-2.15,0-1.07.87-1.83,2.4-2.09,1-.1,2.19-.2,5.56-.25a26.18,26.18,0,0,0,4.69-.36Z"/><path class="cls-1" d="M106.88,57.29c-.82,3.42-2.81,4.9-6.58,4.9-4.39,0-7-2.45-7-6.53a8.88,8.88,0,0,1,.1-1.29h-13c0,.44,0,.88,0,1.34a13.42,13.42,0,0,0,2.4,8h35.15a13.51,13.51,0,0,0,2.12-6.41Z"/><path class="cls-1" d="M136.39,54.37H124.32V63.7H136V57.85A12.27,12.27,0,0,1,136.39,54.37Z"/><path class="cls-1" d="M160,54.37H148.08a22.61,22.61,0,0,1,.21,3.48V63.7H160V54.37Z"/><path class="cls-1" d="M202.6,54.37H168.3a6.14,6.14,0,0,0-4,5.88,7.17,7.17,0,0,0,.85,3.45h37.48c0-.29,0-.6,0-1Zm-11.73,3.12c0,3.17-1.89,4.19-8,4.19-3.17,0-4.7-.72-4.7-2.15,0-1.07.87-1.83,2.4-2.09,1-.1,2.19-.2,5.56-.25a26.08,26.08,0,0,0,4.69-.36Z"/><path class="cls-1" d="M227.44,54.74h11.73c0-.13,0-.24,0-.37H227.4C227.41,54.5,227.43,54.61,227.44,54.74Z"/><path class="cls-1" d="M219.94,54.37H208.11V63.7h11.68V56.47A14.58,14.58,0,0,1,219.94,54.37Z"/><path class="cls-1" d="M272.47,54.37h-12l-1.23,3.07-1.35-3.07H245.17l4.45,9.33h19c.36-.83.73-1.7,1.11-2.64Z"/><path class="cls-1" d="M318.88,61c-1.22,1.38-2.35,1.79-4.95,1.79a11.25,11.25,0,0,1-5.2-1,4.36,4.36,0,0,1-2.09-3h25.55c0-1.74-.11-3.18-.24-4.4H293.79c0,.34-.05.68-.05,1a14.19,14.19,0,0,0,2.5,8.3h34.87A11.94,11.94,0,0,0,332.19,61Z"/><path class="cls-1" d="M361.8,54.37a6,6,0,0,1,.17,1.44c0,3.27-2.49,5.15-6.73,5.15s-6.78-1.88-6.78-5.25a5.72,5.72,0,0,1,.16-1.34H335.51c0,.34-.05.68-.05,1a13.13,13.13,0,0,0,2.65,8.3H373.6V54.37Z"/><polygon class="cls-1" points="419.88 54.37 419.45 55.3 419.03 54.37 395.7 54.37 395.28 55.3 394.83 54.37 381.96 54.37 386.51 63.7 402.89 63.7 407.11 55.3 411 63.7 427.48 63.7 431.79 54.37 419.88 54.37"/><path class="cls-1" d="M475.19,54.37h-34.3a6.14,6.14,0,0,0-4,5.88,7.16,7.16,0,0,0,.84,3.45h37.48c0-.29,0-.6,0-1Zm-11.73,3.12c0,3.17-1.88,4.19-7.95,4.19-3.16,0-4.69-.72-4.69-2.15,0-1.07.86-1.83,2.39-2.09,1-.1,2.2-.2,5.56-.25a26.08,26.08,0,0,0,4.69-.36Z"/><path class="cls-1" d="M500,54.74h11.73c0-.13,0-.24,0-.37H500Z"/><path class="cls-1" d="M492.54,54.37H480.7V63.7h11.68V56.47A13.2,13.2,0,0,1,492.54,54.37Z"/><path class="cls-1" d="M541.19,55.81c0,3.27-2.5,5.15-6.73,5.15s-6.79-1.88-6.79-5.25a5.72,5.72,0,0,1,.16-1.34H514.72c0,.34-.05.68-.05,1a13.19,13.19,0,0,0,2.65,8.3h35.49V54.37H541A6,6,0,0,1,541.19,55.81Z"/><rect class="cls-1" x="124.3" y="57.71" width="11.68" height="1.31"/><rect class="cls-1" x="361.9" y="57.71" width="11.68" height="1.31"/><rect class="cls-1" x="541.12" y="57.71" width="11.68" height="1.31"/><rect class="cls-1" x="2" y="66.18" width="32.54" height="2.18"/><path class="cls-1" d="M57.23,65.06c-5.4,0-9.38.61-12.08,1.83a10.84,10.84,0,0,0-2.49,1.47H73.37C70.89,66.16,65.41,65.06,57.23,65.06Z"/><path class="cls-1" d="M110.07,66.23a42.09,42.09,0,0,0-9.85-1.17,36.85,36.85,0,0,0-12.59,2,11.16,11.16,0,0,0-2.43,1.26H115A16.56,16.56,0,0,0,110.07,66.23Z"/><path class="cls-1" d="M157.14,68.22c-2-1.84-5-2.71-9.39-2.71a20.89,20.89,0,0,0-11.28,2.85h20.8A1.79,1.79,0,0,0,157.14,68.22Z"/><rect class="cls-1" x="124.3" y="59.02" width="11.68" height="9.33"/><path class="cls-1" d="M184,65.06c-5.4,0-9.38.61-12.08,1.83a10.84,10.84,0,0,0-2.49,1.47H200.1C197.62,66.16,192.14,65.06,184,65.06Z"/><rect class="cls-1" x="208.09" y="66.18" width="11.68" height="2.18"/><path class="cls-1" d="M229.3,65.51a15,15,0,0,0-9.13,2.85h17C235.57,66.45,233,65.51,229.3,65.51Z"/><polygon class="cls-1" points="252.76 66.18 239.66 66.18 240.7 68.36 253.72 68.36 252.76 66.18"/><polygon class="cls-1" points="277.09 66.18 265 66.18 264.13 68.36 276.21 68.36 277.09 66.18"/><path class="cls-1" d="M313.1,65.11c-5.7,0-10.77,1.18-14.2,3.25h27.83C323.51,66.27,318.79,65.11,313.1,65.11Z"/><path class="cls-1" d="M351.45,65.51a18.92,18.92,0,0,0-10.68,2.85h32.81V59H361.9V68A22.66,22.66,0,0,0,351.45,65.51Z"/><polygon class="cls-1" points="437.07 66.18 425.14 66.18 424.14 68.36 436.07 68.36 437.07 66.18"/><polygon class="cls-1" points="389.29 66.18 376.34 66.18 377.4 68.36 390.33 68.36 389.29 66.18"/><polygon class="cls-1" points="413.82 66.18 400.87 66.18 399.88 68.36 414.8 68.36 413.82 66.18"/><path class="cls-1" d="M456.56,65.06c-5.41,0-9.39.61-12.09,1.83A11.06,11.06,0,0,0,442,68.36H472.7C470.21,66.16,464.74,65.06,456.56,65.06Z"/><rect class="cls-1" x="480.68" y="66.18" width="11.68" height="2.18"/><path class="cls-1" d="M501.9,65.51a15.09,15.09,0,0,0-9.14,2.85h16.95C508.16,66.45,505.59,65.51,501.9,65.51Z"/><path class="cls-1" d="M530.66,65.51A18.92,18.92,0,0,0,520,68.36h32.81V59H541.12V68A22.7,22.7,0,0,0,530.66,65.51Z"/><polygon class="cls-1" points="34.54 72.55 34.54 68.36 2 68.36 2 73.98 15.62 73.98 10.65 77.69 27.09 77.69 34.54 72.55"/><path class="cls-1" d="M39.64,73.78l12.8-.51c.81-1.18,2.45-1.69,5.56-1.69,3.52,0,6,1,6,2.3,0,.92-.76,1.12-5.4,1.22-6.94.15-12.9,1-16.52,2.35-.2.07-.37.16-.55.24h34.3V76.12c0-4.18-.56-6.07-2.39-7.7l-.08-.06H42.66C41.1,69.6,40.24,71.23,39.64,73.78Z"/><path class="cls-1" d="M80.29,77.69h13c.49-3.28,2.94-5.14,6.88-5.14,3.11,0,5.26,1.28,6.28,3.72h13.41a12.06,12.06,0,0,0-1.07-3.57A10.72,10.72,0,0,0,115,68.36H85.2C82.27,70.34,80.58,73.56,80.29,77.69Z"/><path class="cls-1" d="M136.37,77.69a4.69,4.69,0,0,1,.47-1.11c1-1.89,3.11-2.91,5.87-2.91,2.29,0,4,.72,4.69,1.94a6.45,6.45,0,0,1,.66,2.08h11.88a24.21,24.21,0,0,0-.3-5,8.07,8.07,0,0,0-2.37-4.34h-20.8l-.5.26v-.26H124.3v9.33Z"/><path class="cls-1" d="M166.37,73.78l12.8-.51c.82-1.18,2.45-1.69,5.56-1.69,3.52,0,6,1,6,2.3,0,.92-.77,1.12-5.41,1.22-6.93.15-12.9,1-16.52,2.35-.19.07-.36.16-.54.24h34.3V76.12c0-4.18-.56-6.07-2.4-7.7l-.08-.06H169.39A9,9,0,0,0,166.37,73.78Z"/><path class="cls-1" d="M219.92,77.69c.39-2.62,1.62-3.81,3.93-3.81s3.32,1.09,3.53,3.81h11.76c-.06-3.65-.22-5.34-.71-6.87a7.15,7.15,0,0,0-1.31-2.46h-17l-.4.26v-.26H208.09v9.33Z"/><polygon class="cls-1" points="257.84 77.69 253.72 68.36 240.7 68.36 245.15 77.69 257.84 77.69"/><polygon class="cls-1" points="272.44 77.69 276.21 68.36 264.13 68.36 260.41 77.69 272.44 77.69"/><path class="cls-1" d="M293.77,77.69h38.16a13.6,13.6,0,0,0-1.7-5.8,10.62,10.62,0,0,0-3.5-3.53H298.9c-.29.17-.58.34-.85.52C295.57,70.66,294,73.9,293.77,77.69ZM313.2,72c3.52,0,5.61,1.17,6.37,3.57H306.72C307.59,73.16,309.63,72,313.2,72Z"/><path class="cls-1" d="M335.49,77.69H348.6c.59-2.48,2.91-3.86,6.62-3.86s5.94,1.36,6.56,3.86h11.8V68.36H340.77A11.84,11.84,0,0,0,335.49,77.69Z"/><polygon class="cls-1" points="419.01 77.69 414.8 68.36 399.88 68.36 395.68 77.69 419.01 77.69"/><polygon class="cls-1" points="394.81 77.69 390.33 68.36 377.4 68.36 381.94 77.69 394.81 77.69"/><polygon class="cls-1" points="431.76 77.69 436.07 68.36 424.14 68.36 419.85 77.69 431.76 77.69"/><path class="cls-1" d="M439,73.78l12.8-.51c.82-1.18,2.45-1.69,5.56-1.69,3.52,0,6,1,6,2.3,0,.92-.76,1.12-5.41,1.22-6.93.15-12.9,1-16.52,2.35-.19.07-.36.16-.54.24h34.3V76.12c0-4.18-.56-6.07-2.4-7.7l-.07-.06H442C440.43,69.6,439.57,71.23,439,73.78Z"/><path class="cls-1" d="M492.51,77.69c.4-2.62,1.62-3.81,3.93-3.81S499.76,75,500,77.69h11.75c-.05-3.65-.21-5.34-.71-6.87a7.15,7.15,0,0,0-1.31-2.46H492.76l-.4.26v-.26H480.68v9.33Z"/><path class="cls-1" d="M514.7,77.69h13.11c.59-2.48,2.91-3.86,6.62-3.86s6,1.36,6.56,3.86h11.8V68.36H520A11.87,11.87,0,0,0,514.7,77.69Z"/><polygon class="cls-1" points="18.06 83.92 27.09 77.69 10.65 77.69 0.52 85.25 0.52 87.02 34.18 87.02 34.18 83.92 18.06 83.92"/><path class="cls-1" d="M75.84,77.69H41.54a6.15,6.15,0,0,0-4,5.88A7.16,7.16,0,0,0,38.39,87H75.87q0-.43,0-1ZM64.12,80.81c0,3.16-1.89,4.18-8,4.18-3.16,0-4.69-.71-4.69-2.14,0-1.07.87-1.83,2.4-2.09,1-.1,2.19-.2,5.55-.25a28.31,28.31,0,0,0,4.7-.36Z"/><path class="cls-1" d="M106.85,80.61c-.81,3.42-2.8,4.89-6.57,4.89-4.39,0-7-2.44-7-6.52a7.67,7.67,0,0,1,.1-1.29h-13c0,.44-.06.88-.06,1.34a13.43,13.43,0,0,0,2.41,8h35.15a13.62,13.62,0,0,0,2.12-6.41Z"/><path class="cls-1" d="M136.37,77.69H124.3V87H136V81.17A12.17,12.17,0,0,1,136.37,77.69Z"/><path class="cls-1" d="M159.94,77.69H148.06a22.82,22.82,0,0,1,.2,3.48V87h11.68V77.69Z"/><path class="cls-1" d="M202.58,77.69h-34.3a6.14,6.14,0,0,0-4,5.88,7.17,7.17,0,0,0,.85,3.45h37.48q0-.43,0-1Zm-11.73,3.12c0,3.16-1.89,4.18-8,4.18-3.16,0-4.69-.71-4.69-2.14,0-1.07.87-1.83,2.4-2.09,1-.1,2.19-.2,5.56-.25a28.16,28.16,0,0,0,4.69-.36Z"/><path class="cls-1" d="M227.42,78.06h11.73c0-.13,0-.24,0-.37H227.38C227.39,77.82,227.41,77.93,227.42,78.06Z"/><path class="cls-1" d="M219.92,77.69H208.09V87h11.68V79.79A14.47,14.47,0,0,1,219.92,77.69Z"/><path class="cls-1" d="M272.45,77.69h-12l-1.22,3.07-1.35-3.07H245.15L249.59,87h19c.36-.83.73-1.7,1.11-2.64Z"/><path class="cls-1" d="M318.86,84.28c-1.23,1.38-2.35,1.78-4.95,1.78a11.27,11.27,0,0,1-5.2-1,4.36,4.36,0,0,1-2.09-3h25.55c0-1.75-.11-3.18-.24-4.4H293.77c0,.34,0,.68,0,1a14.28,14.28,0,0,0,2.49,8.3h34.87a12.31,12.31,0,0,0,1.09-2.74Z"/><path class="cls-1" d="M361.78,77.69a6,6,0,0,1,.17,1.44c0,3.26-2.5,5.15-6.73,5.15s-6.78-1.89-6.78-5.25a5.72,5.72,0,0,1,.16-1.34H335.49c0,.34-.05.68-.05,1a13.18,13.18,0,0,0,2.64,8.3h35.5V77.69Z"/><polygon class="cls-1" points="419.85 77.69 419.43 78.62 419.01 77.69 395.68 77.69 395.26 78.62 394.81 77.69 381.94 77.69 386.49 87.02 402.87 87.02 407.09 78.62 410.98 87.02 427.46 87.02 431.76 77.69 419.85 77.69"/><path class="cls-1" d="M475.17,77.69h-34.3a6.14,6.14,0,0,0-4,5.88,7.17,7.17,0,0,0,.85,3.45H475.2q0-.43,0-1Zm-11.73,3.12c0,3.16-1.88,4.18-7.95,4.18-3.16,0-4.7-.71-4.7-2.14,0-1.07.87-1.83,2.4-2.09,1-.1,2.19-.2,5.56-.25a28.16,28.16,0,0,0,4.69-.36Z"/><path class="cls-1" d="M500,78.06h11.73c0-.13,0-.24,0-.37H500Z"/><path class="cls-1" d="M492.51,77.69H480.68V87h11.68V79.79A14.47,14.47,0,0,1,492.51,77.69Z"/><path class="cls-1" d="M541.17,79.13c0,3.26-2.5,5.15-6.74,5.15s-6.78-1.89-6.78-5.25a5.72,5.72,0,0,1,.16-1.34H514.7c0,.34-.05.68-.05,1A13.19,13.19,0,0,0,517.3,87h35.49V77.69H541A6,6,0,0,1,541.17,79.13Z"/><rect class="cls-1" x="0.52" y="87.02" width="33.66" height="4.7"/><path class="cls-1" d="M52,92.39c5.2,0,8.52-.82,12.39-3l.26,2.3H76.92c-.84-1.34-1-1.86-1-4.71H38.39C40.23,90.45,45,92.39,52,92.39Z"/><path class="cls-1" d="M86.56,90.3C90,91.93,95,92.8,101.09,92.8c7,0,12.24-1.38,15.15-4A10.52,10.52,0,0,0,117.79,87H82.64A10.24,10.24,0,0,0,86.56,90.3Z"/><rect class="cls-1" x="148.26" y="87.02" width="11.68" height="4.7"/><rect class="cls-1" x="124.3" y="87.02" width="11.68" height="4.7"/><path class="cls-1" d="M178.76,92.39c5.2,0,8.52-.82,12.4-3l.25,2.3h12.24c-.83-1.34-1-1.86-1-4.71H165.13C167,90.45,171.74,92.39,178.76,92.39Z"/><rect class="cls-1" x="208.09" y="87.02" width="11.68" height="4.7"/><path class="cls-1" d="M251.59,91.22a11.14,11.14,0,0,1-3.11.45,12.49,12.49,0,0,1-5.66-1.47v6.16h20.67c1.48-1.68,3.18-4.77,5.15-9.34h-19Z"/><path class="cls-1" d="M299.12,89.79c3.32,2,8.42,3,15.35,3,5.87,0,9.84-.77,13.06-2.45A8.21,8.21,0,0,0,331.08,87H296.21A10.08,10.08,0,0,0,299.12,89.79Z"/><path class="cls-1" d="M351.29,92.39a16.93,16.93,0,0,0,10.92-3.47l-.31,2.81h11.68V87h-35.5C340.75,90.45,345.33,92.39,351.29,92.39Z"/><polygon class="cls-1" points="413.15 91.73 425.29 91.73 427.46 87.02 410.98 87.02 413.15 91.73"/><polygon class="cls-1" points="388.78 91.73 400.51 91.73 402.87 87.02 386.49 87.02 388.78 91.73"/><path class="cls-1" d="M451.36,92.39c5.2,0,8.51-.82,12.39-3l.25,2.3h12.24c-.83-1.34-.95-1.86-1-4.71H437.72C439.55,90.45,444.33,92.39,451.36,92.39Z"/><rect class="cls-1" x="480.68" y="87.02" width="11.68" height="4.7"/><path class="cls-1" d="M530.51,92.39a16.91,16.91,0,0,0,10.91-3.47l-.3,2.81h11.67V87H517.3C520,90.45,524.54,92.39,530.51,92.39Z"/><rect class="cls-1" x="124.28" y="85.66" width="11.68" height="1.31"/><rect class="cls-1" x="361.88" y="85.66" width="11.68" height="1.31"/><rect class="cls-1" x="541.09" y="85.66" width="11.68" height="1.31"/><rect class="cls-1" x="1.98" y="94.12" width="32.54" height="2.18"/><path class="cls-1" d="M57.21,93c-5.41,0-9.38.61-12.09,1.84a10.69,10.69,0,0,0-2.49,1.46H73.35C70.86,94.1,65.39,93,57.21,93Z"/><path class="cls-1" d="M110,94.17A42.47,42.47,0,0,0,100.2,93a37.1,37.1,0,0,0-12.59,2,11.62,11.62,0,0,0-2.43,1.26H115A16.77,16.77,0,0,0,110,94.17Z"/><path class="cls-1" d="M157.12,96.16c-2-1.83-5.05-2.7-9.39-2.7a20.89,20.89,0,0,0-11.28,2.84h20.8A.86.86,0,0,1,157.12,96.16Z"/><rect class="cls-1" x="124.28" y="86.97" width="11.68" height="9.33"/><path class="cls-1" d="M183.94,93c-5.4,0-9.38.61-12.08,1.84a10.48,10.48,0,0,0-2.49,1.46h30.71C197.6,94.1,192.12,93,183.94,93Z"/><rect class="cls-1" x="208.07" y="94.12" width="11.68" height="2.18"/><path class="cls-1" d="M229.28,93.46a15,15,0,0,0-9.13,2.84H237.1C235.55,94.4,233,93.46,229.28,93.46Z"/><polygon class="cls-1" points="252.74 94.12 239.64 94.12 240.68 96.3 253.7 96.3 252.74 94.12"/><polygon class="cls-1" points="277.07 94.12 264.98 94.12 264.11 96.3 276.19 96.3 277.07 94.12"/><path class="cls-1" d="M313.07,93.05c-5.69,0-10.76,1.19-14.19,3.25h27.83C323.49,94.21,318.77,93.05,313.07,93.05Z"/><path class="cls-1" d="M351.43,93.46a19,19,0,0,0-10.68,2.84h32.81V87H361.88v8.94A22.54,22.54,0,0,0,351.43,93.46Z"/><polygon class="cls-1" points="437.05 94.12 425.12 94.12 424.12 96.3 436.05 96.3 437.05 94.12"/><polygon class="cls-1" points="389.27 94.12 376.31 94.12 377.38 96.3 390.31 96.3 389.27 94.12"/><polygon class="cls-1" points="413.8 94.12 400.84 94.12 399.86 96.3 414.78 96.3 413.8 94.12"/><path class="cls-1" d="M456.54,93c-5.41,0-9.39.61-12.09,1.84A10.69,10.69,0,0,0,442,96.3h30.71C470.19,94.1,464.72,93,456.54,93Z"/><rect class="cls-1" x="480.66" y="94.12" width="11.68" height="2.18"/><path class="cls-1" d="M501.87,93.46a15,15,0,0,0-9.13,2.84h16.95C508.14,94.4,505.57,93.46,501.87,93.46Z"/><path class="cls-1" d="M530.64,93.46A19,19,0,0,0,520,96.3h32.81V87H541.09v8.94A22.54,22.54,0,0,0,530.64,93.46Z"/><polygon class="cls-1" points="34.51 100.5 34.51 96.3 1.98 96.3 1.98 101.93 15.59 101.93 10.63 105.64 27.07 105.64 34.51 100.5"/><path class="cls-1" d="M39.62,101.72l12.8-.51c.81-1.17,2.44-1.68,5.55-1.68,3.52,0,6,1,6,2.29,0,.92-.76,1.13-5.4,1.23-6.94.15-12.9,1-16.53,2.34l-.54.25h34.3v-1.57c0-4.18-.56-6.07-2.39-7.7l-.08-.07H42.63C41.08,97.54,40.22,99.17,39.62,101.72Z"/><path class="cls-1" d="M80.27,105.64h13c.5-3.28,3-5.14,6.89-5.14,3.11,0,5.26,1.27,6.27,3.72h13.42a12.06,12.06,0,0,0-1.07-3.57A10.75,10.75,0,0,0,115,96.3H85.18C82.25,98.29,80.56,101.5,80.27,105.64Z"/><path class="cls-1" d="M136.35,105.64a4.69,4.69,0,0,1,.47-1.11c1-1.89,3.11-2.91,5.86-2.91,2.3,0,4,.71,4.7,1.94a6.37,6.37,0,0,1,.66,2.08h11.88a23.89,23.89,0,0,0-.31-5,8.06,8.06,0,0,0-2.36-4.35h-20.8l-.5.27V96.3H124.28v9.34Z"/><path class="cls-1" d="M166.35,101.72l12.8-.51c.82-1.17,2.45-1.68,5.56-1.68,3.52,0,6,1,6,2.29,0,.92-.77,1.13-5.41,1.23-6.94.15-12.9,1-16.52,2.34l-.55.25h34.31v-1.57c0-4.18-.56-6.07-2.4-7.7a.27.27,0,0,0-.08-.07H169.37A9,9,0,0,0,166.35,101.72Z"/><path class="cls-1" d="M219.9,105.64c.39-2.63,1.62-3.82,3.93-3.82s3.31,1.09,3.53,3.82h11.76c-.06-3.66-.22-5.35-.71-6.88a7.34,7.34,0,0,0-1.31-2.46H220.15c-.14.09-.27.17-.4.27V96.3H208.07v9.34Z"/><polygon class="cls-1" points="257.81 105.64 253.7 96.3 240.68 96.3 245.12 105.64 257.81 105.64"/><polygon class="cls-1" points="272.42 105.64 276.19 96.3 264.11 96.3 260.39 105.64 272.42 105.64"/><path class="cls-1" d="M293.75,105.64h38.16a13.8,13.8,0,0,0-1.7-5.81,10.81,10.81,0,0,0-3.5-3.53H298.88c-.29.17-.59.34-.85.53C295.55,98.6,294,101.85,293.75,105.64ZM313.18,100c3.51,0,5.61,1.17,6.37,3.57H306.7C307.57,101.11,309.61,100,313.18,100Z"/><path class="cls-1" d="M335.46,105.64h13.11c.6-2.48,2.92-3.87,6.63-3.87s5.94,1.37,6.56,3.87h11.8V96.3H340.75A11.87,11.87,0,0,0,335.46,105.64Z"/><polygon class="cls-1" points="418.99 105.64 414.78 96.3 399.86 96.3 395.65 105.64 418.99 105.64"/><polygon class="cls-1" points="394.79 105.64 390.31 96.3 377.38 96.3 381.92 105.64 394.79 105.64"/><polygon class="cls-1" points="431.74 105.64 436.05 96.3 424.12 96.3 419.83 105.64 431.74 105.64"/><path class="cls-1" d="M438.94,101.72l12.8-.51c.82-1.17,2.45-1.68,5.56-1.68,3.52,0,6,1,6,2.29,0,.92-.77,1.13-5.41,1.23-6.93.15-12.9,1-16.52,2.34l-.54.25h34.3v-1.57c0-4.18-.56-6.07-2.4-7.7a.27.27,0,0,0-.08-.07H442A9,9,0,0,0,438.94,101.72Z"/><path class="cls-1" d="M492.49,105.64c.4-2.63,1.62-3.82,3.93-3.82s3.32,1.09,3.53,3.82h11.76c-.06-3.66-.21-5.35-.71-6.88a7.34,7.34,0,0,0-1.31-2.46H492.74c-.13.09-.27.17-.4.27V96.3H480.66v9.34Z"/><path class="cls-1" d="M514.68,105.64h13.11c.59-2.48,2.91-3.87,6.62-3.87s5.94,1.37,6.56,3.87h11.8V96.3H520A11.86,11.86,0,0,0,514.68,105.64Z"/><polygon class="cls-1" points="18.04 111.87 27.07 105.64 10.63 105.64 0.5 113.19 0.5 114.97 34.16 114.97 34.16 111.87 18.04 111.87"/><path class="cls-1" d="M75.82,105.64H41.52a6.11,6.11,0,0,0-4,5.87,7.23,7.23,0,0,0,.84,3.46H75.85c0-.3,0-.61,0-1Zm-11.73,3.12c0,3.16-1.88,4.18-8,4.18-3.16,0-4.69-.71-4.69-2.14,0-1.07.86-1.84,2.39-2.09,1-.1,2.2-.21,5.56-.26a27.39,27.39,0,0,0,4.69-.35Z"/><path class="cls-1" d="M106.83,108.56c-.81,3.41-2.8,4.89-6.58,4.89-4.38,0-7-2.45-7-6.53a8.67,8.67,0,0,1,.09-1.28h-13c0,.43-.06.88-.06,1.33a13.44,13.44,0,0,0,2.41,8h35.15a13.66,13.66,0,0,0,2.12-6.41Z"/><path class="cls-1" d="M136.35,105.64H124.28V115H136v-5.85A12.13,12.13,0,0,1,136.35,105.64Z"/><path class="cls-1" d="M159.92,105.64H148a22.82,22.82,0,0,1,.2,3.48V115h11.68v-9.33Z"/><path class="cls-1" d="M202.56,105.64H168.25a6.13,6.13,0,0,0-4,5.87,7.34,7.34,0,0,0,.84,3.46h37.48c0-.3,0-.61,0-1Zm-11.73,3.12c0,3.16-1.89,4.18-8,4.18-3.16,0-4.69-.71-4.69-2.14,0-1.07.87-1.84,2.4-2.09,1-.1,2.19-.21,5.56-.26a27.49,27.49,0,0,0,4.69-.35Z"/><path class="cls-1" d="M227.39,106h11.73v-.37H227.36C227.37,105.76,227.39,105.87,227.39,106Z"/><path class="cls-1" d="M219.9,105.64H208.07V115h11.68v-7.23A14.37,14.37,0,0,1,219.9,105.64Z"/><path class="cls-1" d="M272.42,105.64h-12l-1.22,3.07-1.36-3.07H245.12l4.45,9.33h19.05c.36-.84.72-1.71,1.1-2.64Z"/><path class="cls-1" d="M318.84,112.23c-1.23,1.37-2.35,1.78-4.95,1.78a11.23,11.23,0,0,1-5.2-1,4.32,4.32,0,0,1-2.09-3h25.55c0-1.74-.11-3.17-.24-4.39H293.75c0,.34-.05.68-.05,1a14.28,14.28,0,0,0,2.49,8.3h34.87a12.81,12.81,0,0,0,1.09-2.74Z"/><path class="cls-1" d="M361.76,105.64a5.92,5.92,0,0,1,.17,1.44c0,3.26-2.5,5.15-6.73,5.15s-6.78-1.89-6.78-5.26a5.64,5.64,0,0,1,.15-1.33H335.46c0,.34,0,.68,0,1a13.23,13.23,0,0,0,2.65,8.3h35.5v-9.33Z"/><polygon class="cls-1" points="419.83 105.64 419.4 106.57 418.99 105.64 395.65 105.64 395.23 106.57 394.79 105.64 381.92 105.64 386.47 114.97 402.85 114.97 407.06 106.57 410.95 114.97 427.44 114.97 431.74 105.64 419.83 105.64"/><path class="cls-1" d="M475.15,105.64h-34.3a6.12,6.12,0,0,0-4,5.87,7.23,7.23,0,0,0,.85,3.46h37.48c0-.3,0-.61,0-1Zm-11.73,3.12c0,3.16-1.89,4.18-7.95,4.18-3.17,0-4.7-.71-4.7-2.14,0-1.07.87-1.84,2.4-2.09,1-.1,2.19-.21,5.56-.26a27.39,27.39,0,0,0,4.69-.35Z"/><path class="cls-1" d="M500,106h11.73c0-.14,0-.25,0-.37H500C500,105.76,500,105.87,500,106Z"/><path class="cls-1" d="M492.49,105.64H480.66V115h11.68v-7.23A14.37,14.37,0,0,1,492.49,105.64Z"/><path class="cls-1" d="M541.14,107.08c0,3.26-2.49,5.15-6.73,5.15s-6.78-1.89-6.78-5.26a5.64,5.64,0,0,1,.16-1.33H514.68c0,.34,0,.68,0,1a13.17,13.17,0,0,0,2.65,8.3h35.49v-9.33H541A5.92,5.92,0,0,1,541.14,107.08Z"/><rect class="cls-1" x="0.5" y="114.97" width="33.66" height="4.7"/><path class="cls-1" d="M52,120.33c5.2,0,8.51-.81,12.39-3l.25,2.29H76.89c-.83-1.34-1-1.85-1-4.7H38.37C40.2,118.39,45,120.33,52,120.33Z"/><path class="cls-1" d="M86.54,118.24c3.41,1.64,8.46,2.5,14.53,2.5,7,0,12.24-1.37,15.14-4a10.53,10.53,0,0,0,1.56-1.74H82.62A10.21,10.21,0,0,0,86.54,118.24Z"/><rect class="cls-1" x="148.24" y="114.97" width="11.68" height="4.7"/><rect class="cls-1" x="124.28" y="114.97" width="11.68" height="4.7"/><path class="cls-1" d="M178.74,120.33c5.2,0,8.52-.81,12.39-3l.26,2.29h12.24c-.83-1.34-.95-1.85-1-4.7H165.1C166.94,118.39,171.72,120.33,178.74,120.33Z"/><rect class="cls-1" x="208.07" y="114.97" width="11.68" height="4.7"/><path class="cls-1" d="M251.57,119.16a10.8,10.8,0,0,1-3.11.46,12.48,12.48,0,0,1-5.66-1.48v6.16h20.67c1.48-1.67,3.17-4.76,5.15-9.33H249.57Z"/><path class="cls-1" d="M299.1,117.73c3.32,2,8.42,3,15.35,3,5.86,0,9.84-.76,13.06-2.45a8.14,8.14,0,0,0,3.55-3.32H296.19A10,10,0,0,0,299.1,117.73Z"/><path class="cls-1" d="M351.27,120.33a16.92,16.92,0,0,0,10.92-3.46l-.31,2.8h11.68V115h-35.5C340.73,118.39,345.31,120.33,351.27,120.33Z"/><polygon class="cls-1" points="413.13 119.67 425.27 119.67 427.44 114.97 410.95 114.97 413.13 119.67"/><polygon class="cls-1" points="388.76 119.67 400.49 119.67 402.85 114.97 386.47 114.97 388.76 119.67"/><path class="cls-1" d="M451.33,120.33c5.21,0,8.52-.81,12.4-3l.25,2.29h12.24c-.83-1.34-1-1.85-1-4.7H437.7C439.53,118.39,444.31,120.33,451.33,120.33Z"/><rect class="cls-1" x="480.66" y="114.97" width="11.68" height="4.7"/><path class="cls-1" d="M530.49,120.33a16.91,16.91,0,0,0,10.91-3.46l-.31,2.8h11.68V115H517.28C520,118.39,524.52,120.33,530.49,120.33Z"/><path class="cls-1" d="M242.8,126.76a45.49,45.49,0,0,0,9.43,1c5.1,0,8.82-1,10.81-3,.14-.13.29-.31.43-.47H242.8Z"/></g></g></svg>